PathFileType	4	(X/Y/Z)	s03c0401.trc
DataRate	CameraRate	NumFrames	NumMarkers	Units	OrigDataRate	OrigDataStartFrame	OrigNumFrames
200	200	4	52	mm	200	1750	2000
Frame#	Time	racr			lacr			c7			jug			rlel			rdr			llel			ldr			s2			lic			ric			lasi			rasi			rpsi			lpsi			rgt			lgt			rth1			rth2			rth3			rth4			rlfc			rmfc			rsh1			rsh2			rsh3			rsh4			rlmal			rmmal			rcal			rtoe			rmt5			rmt1			lth1			lth2			lth4			lth3			llfc			lmfc			lsh1			lsh2			lsh3			lsh4			llmal			lmmal			lcal			ltoe			lmt1			lmt5			SBIKE			LBIKE			RBIKE			
		X1	Y1	Z1	X2	Y2	Z2	X3	Y3	Z3	X4	Y4	Z4	X5	Y5	Z5	X6	Y6	Z6	X7	Y7	Z7	X8	Y8	Z8	X9	Y9	Z9	X10	Y10	Z10	X11	Y11	Z11	X12	Y12	Z12	X13	Y13	Z13	X14	Y14	Z14	X15	Y15	Z15	X16	Y16	Z16	X17	Y17	Z17	X18	Y18	Z18	X19	Y19	Z19	X20	Y20	Z20	X21	Y21	Z21	X22	Y22	Z22	X23	Y23	Z23	X24	Y24	Z24	X25	Y25	Z25	X26	Y26	Z26	X27	Y27	Z27	X28	Y28	Z28	X29	Y29	Z29	X30	Y30	Z30	X31	Y31	Z31	X32	Y32	Z32	X33	Y33	Z33	X34	Y34	Z34	X35	Y35	Z35	X36	Y36	Z36	X37	Y37	Z37	X38	Y38	Z38	X39	Y39	Z39	X40	Y40	Z40	X41	Y41	Z41	X42	Y42	Z42	X43	Y43	Z43	X44	Y44	Z44	X45	Y45	Z45	X46	Y46	Z46	X47	Y47	Z47	X48	Y48	Z48	X49	Y49	Z49	X50	Y50	Z50	X51	Y51	Z51	X52	Y52	Z52	
1750	8.7500	713.556842	1460.748924	-61.816261	672.024382	1452.103464	-387.520767	637.740950	1541.829189	-221.407944	645.660580	1367.165471	-221.294996	600.061630	1206.724351	70.646308	740.596912	986.888991	-31.868533	594.301576	1220.555227	-536.986212	721.261944	975.944981	-441.948700	100.999136	1275.943536	-239.815704	296.318691	1286.584055	-408.375542	255.692427	1304.009893	-47.788365	303.440502	1214.628089	-362.810791	286.948452	1238.741100	-91.203533	126.241792	1328.067455	-199.296230	139.281816	1321.888422	-281.848540	215.230899	1220.488918	-32.429973	208.703604	1158.945742	-422.390250	333.252052	1119.148344	-9.305481	418.491420	1092.710850	-8.907041	478.888764	1031.295239	-8.206128	436.100161	1120.356879	-27.074052	570.371039	937.983076	-29.412837	577.727676	916.252113	-157.864336	450.586117	826.485980	-12.686025	396.602072	757.948666	-32.309778	314.931943	725.359945	-36.041849	416.711615	737.311209	-56.155483	206.462313	649.655492	-60.820573	234.659627	648.176328	-146.042646	130.703641	659.917339	-98.885325	341.268246	435.504590	-130.465797	254.093271	505.161338	-49.922951	272.934756	505.027290	-165.542161	233.069918	1005.127788	-440.622730	267.056628	924.901356	-442.998492	303.378088	930.823726	-439.916658	257.041404	837.214963	-431.849368	300.716240	719.542598	-404.517927	300.847110	701.426593	-284.975897	245.666440	560.221120	-438.633615	251.268017	475.876019	-427.987796	212.152337	394.582401	-427.347122	284.730782	469.827483	-407.598475	179.121490	271.791956	-415.227082	213.961752	275.647023	-328.938402	110.580109	250.528891	-373.364612	399.194474	139.282592	-357.869308	308.634201	170.831938	-318.669143	281.073185	152.286424	-436.112213	-216.662949	944.808322	-235.826489	-11.800973	80.645246	-435.669560	-11.903201	81.150295	-35.229399	
1751	8.7550	712.475692	1460.833214	-60.002355	672.898504	1452.061598	-385.946452	637.240468	1541.583445	-219.969125	645.369056	1366.747313	-219.730374	598.965665	1206.297072	71.900769	740.561373	987.164395	-31.129533	594.699525	1220.857983	-536.088888	720.946036	975.629708	-442.126275	100.629061	1274.963029	-240.682266	296.989574	1285.573309	-408.160724	254.342231	1303.945179	-47.807147	303.925632	1213.986919	-362.387777	286.053936	1238.838614	-91.371936	125.314186	1327.470216	-200.084386	139.104126	1321.497321	-278.351717	214.466443	1220.059095	-32.696818	208.956148	1158.163145	-422.622729	333.860866	1119.870750	-10.001989	419.304886	1094.248676	-9.687804	480.325219	1033.465263	-9.467815	436.752555	1122.358735	-27.468265	573.637025	942.683796	-31.188679	581.777522	922.417539	-161.704503	455.753620	830.050298	-14.162133	402.728240	761.204171	-32.937732	321.259762	727.279421	-36.682113	422.615985	740.295883	-58.284868	213.000189	650.241464	-61.188643	240.588069	649.412334	-146.732419	136.742922	659.089432	-98.557694	352.358822	439.789022	-130.849736	263.624453	507.391389	-50.182544	282.168583	507.738822	-165.892047	232.175214	1004.796956	-441.014837	265.304529	924.152762	-443.735442	301.675998	929.703904	-440.597184	254.308133	836.573671	-432.801244	296.955087	718.180184	-405.360974	297.158088	700.128105	-285.517918	240.129229	559.547308	-439.302388	245.038140	475.104148	-428.595161	205.230285	394.183832	-427.824621	278.641388	468.713390	-408.425106	171.338705	271.674267	-415.535363	206.469220	274.997675	-329.587822	102.721113	252.017389	-373.668478	389.138783	135.428451	-357.759458	299.049556	168.706594	-318.541845	271.287338	150.371704	-436.174467	-216.877942	944.880152	-235.628861	-11.806324	80.612453	-435.685362	-11.899275	81.095086	-35.213228	
1752	8.7600	711.428416	1460.766438	-58.296740	673.801489	1451.911906	-384.294603	636.910973	1541.252118	-218.564900	645.014068	1366.357600	-218.264961	597.840128	1205.830808	73.198881	740.365611	987.373943	-30.398771	595.116263	1221.186418	-535.251704	720.565195	975.289015	-442.266350	99.427524	1274.050954	-241.804099	297.487007	1284.898846	-407.832764	253.132573	1304.035099	-47.912709	304.201657	1213.524518	-361.990014	284.898070	1239.398829	-90.704606	124.081287	1327.148881	-200.604109	138.911952	1321.135987	-279.147597	213.608374	1219.616248	-32.809547	209.175407	1157.677079	-422.785924	334.304215	1120.444155	-10.625961	419.900631	1095.473584	-10.343022	481.545095	1035.335087	-11.015005	437.209762	1124.095221	-27.761483	576.484487	947.083408	-33.124683	584.827408	927.235691	-162.768035	460.854855	833.092916	-16.015294	408.456274	763.449034	-34.239420	327.624691	728.227832	-37.570277	428.903734	743.186655	-58.811492	219.319628	649.896129	-61.494821	246.413298	649.832364	-147.297457	142.377409	657.217980	-98.357716	363.889548	443.521156	-131.489297	273.163810	508.913379	-50.296054	291.466851	509.724553	-166.080798	231.541501	1004.817262	-441.265889	263.926164	923.827473	-444.278106	300.387332	929.136546	-441.165240	252.166528	836.372854	-433.664128	293.965175	717.349303	-406.322997	294.421462	699.194885	-286.030351	235.254171	559.219109	-439.875639	239.245677	474.788402	-429.230339	198.553752	394.258790	-428.246120	273.067941	468.508292	-410.249905	163.464940	272.269153	-415.770487	199.086793	275.059674	-330.272803	94.774368	254.101244	-373.837172	378.902659	132.219256	-357.711427	289.610367	167.455319	-318.716920	261.424129	149.181433	-436.130108	-216.899581	944.831400	-235.643396	-11.827041	80.600988	-435.691256	-11.912371	81.096471	-35.213764	
1753	8.7650	710.588666	1460.443997	-56.630815	674.729012	1451.697767	-382.592156	636.738736	1540.764614	-217.217105	644.761384	1365.738292	-216.697469	596.669543	1205.405492	74.537491	740.075001	987.499057	-29.803550	595.554367	1221.505736	-534.541830	720.224037	974.999550	-442.287813	99.647445	1273.694657	-241.949626	297.686777	1284.447637	-407.456890	252.111117	1304.389382	-47.858342	304.168279	1213.295566	-361.684834	283.940576	1239.915204	-90.636019	123.650348	1326.919700	-200.810428	139.666390	1320.756019	-279.689154	212.782205	1219.358676	-32.760307	209.351548	1157.416919	-422.971968	334.711231	1120.832573	-11.372666	420.350057	1096.505251	-10.965556	482.394222	1036.783125	-12.483838	437.577437	1125.612290	-28.029424	578.710750	951.133546	-34.926486	587.651429	931.704403	-164.959671	465.217296	835.488966	-17.623015	413.744919	765.090760	-35.589094	333.465594	728.576906	-38.181341	434.307229	745.253264	-60.407429	225.685351	648.917615	-61.494610	251.979250	649.527952	-147.814994	147.748289	654.441091	-98.155222	374.582557	446.812979	-131.512299	282.582337	509.856956	-50.585435	300.720476	511.158675	-166.253470	231.124213	1005.014536	-440.842387	263.022545	923.964140	-444.599922	299.489904	929.036979	-441.565303	250.746277	836.557346	-434.320810	291.745217	716.941714	-407.813386	292.861116	698.557481	-286.711388	230.943673	559.605829	-440.827861	233.963672	474.894694	-429.810218	192.216125	394.992457	-428.524381	267.813483	468.260725	-411.029565	155.687868	273.515086	-415.883456	191.852910	275.855114	-330.993473	86.893469	256.961787	-373.931347	368.654742	129.605229	-357.611770	280.047203	166.659554	-318.642988	251.490208	148.716756	-436.068173	-216.914795	944.778680	-235.682832	-11.842240	80.575339	-435.699440	-11.931331	81.058982	-35.208343	
